<svg id="Icon" xmlns="http://www.w3.org/2000/svg" viewBox="456 256 48 48"><linearGradient id="SVGID_1_" gradientUnits="userSpaceOnUse" x1="480.042" y1="303.917" x2="480.042" y2="256"><stop offset="0" stop-color="#f8350f"/><stop offset="1" stop-color="#f79610"/></linearGradient><path fill="url(#SVGID_1_)" d="M504 297.928a5.99 5.99 0 0 1-5.989 5.989h-35.938a5.99 5.99 0 0 1-5.99-5.989V261.99a5.99 5.99 0 0 1 5.99-5.99h35.938a5.99 5.99 0 0 1 5.989 5.99v35.938z"/><g fill="#F8350F"><path d="M491.689 277.607s.007-.09.005-.248a.043.043 0 0 0-.005.001v.247zM461.542 281.797c0 .778.118 1.431.306 1.982v-3.889c-.191.526-.306 1.153-.306 1.907zM462.673 278.946v5.855c.25.453.541.804.832 1.066v-7.86a3.45 3.45 0 0 0-.832.939zM464.337 277.528v8.913c.334.168.571.222.571.222h.26v-9.373a4.017 4.017 0 0 0-.831.238zM466.832 277.231c-.275-.006-.561 0-.832.003v9.429h.832v-9.432zM467.841 277.36c-.036-.014-.082-.023-.123-.035v9.337h.979v-11.968c-1.004 1.288-.856 2.666-.856 2.666zM469.187 274.167v12.497h.979v-13.189a4.91 4.91 0 0 0-.979.692zM470.654 273.232v13.431h.978v-13.766a6.706 6.706 0 0 0-.978.335zM472.122 272.788v13.875h.979V272.7c-.316.006-.64.028-.979.088zM473.589 272.702v13.961h.979v-13.814a6.15 6.15 0 0 0-.979-.147z"/><path d="M497.928 279.516c-1.937-3.538-6.15-2.184-6.233-2.157.002.158-.005.248-.005.248v-.247l.005-.001c-.013-1.089-.398-5.494-5.63-7.269-5.993-2.032-9.356 3.82-9.356 3.82-.138-.221-.745-.652-1.652-.938v13.691h19.569c1.896 0 5.259-3.574 3.302-7.147z"/></g><g fill="#FFF"><path d="M491.689 278.673s.007-.089.005-.246a.043.043 0 0 0-.005.001v.245zM461.542 282.833c0 .772.118 1.42.306 1.968v-3.859c-.191.52-.306 1.142-.306 1.891zM462.673 280.003v5.812c.25.45.541.798.832 1.059v-7.803c-.302.233-.59.536-.832.932zM464.337 278.596v8.848c.334.166.571.22.571.22h.26v-9.304a3.881 3.881 0 0 0-.831.236zM466.832 278.3c-.275-.006-.561 0-.832.003v9.36h.832V278.3zM467.841 278.429c-.036-.014-.082-.023-.123-.034v9.269h.979v-11.88c-1.004 1.277-.856 2.645-.856 2.645zM469.187 275.258v12.405h.979v-13.092c-.386.21-.71.442-.979.687zM470.654 274.331v13.332h.978v-13.665a6.81 6.81 0 0 0-.978.333zM472.122 273.89v13.773h.979v-13.86c-.316.006-.64.027-.979.087zM473.589 273.804v13.859h.979V273.95a6.269 6.269 0 0 0-.979-.146z"/><path d="M497.928 280.568c-1.937-3.512-6.15-2.168-6.233-2.141.002.157-.005.246-.005.246v-.245l.005-.001c-.013-1.082-.398-5.453-5.63-7.215-5.993-2.018-9.356 3.792-9.356 3.792-.138-.22-.745-.647-1.652-.931v13.59h19.569c1.896 0 5.259-3.548 3.302-7.095z"/></g></svg>