<svg height="512" id="Layer_1" viewBox="0 0 512 512" width="512" xmlns="http://www.w3.org/2000/svg"><g id="g5608"><rect height="512" id="rect2987" rx="64" ry="64" width="512" fill="#4c75a3"/><path d="M251.71 369.145h23.907s7.219-.798 10.91-4.77c3.397-3.65 3.288-10.501 3.288-10.501s-.471-32.08 14.42-36.803c14.68-4.655 33.527 31.003 53.504 44.713 15.107 10.376 26.588 8.104 26.588 8.104l53.418-.743s27.937-1.726 14.69-23.698c-1.084-1.793-7.72-16.25-39.716-45.949-33.503-31.094-29.012-26.061 11.337-79.838 24.57-32.75 34.397-52.739 31.324-61.305-2.926-8.157-20.998-6.006-20.998-6.006l-60.147.376s-4.457-.609-7.765 1.369c-3.23 1.936-5.305 6.454-5.305 6.454s-9.528 25.342-22.22 46.895c-26.777 45.474-37.488 47.881-41.865 45.051-10.184-6.581-7.637-26.434-7.637-40.544 0-44.072 6.684-62.45-13.021-67.204-6.54-1.579-11.353-2.626-28.075-2.795-21.458-.218-39.623.069-49.905 5.104-6.842 3.359-12.124 10.818-8.903 11.25 3.975.53 12.976 2.425 17.747 8.922 6.164 8.387 5.948 27.216 5.948 27.216s3.544 51.88-8.27 58.321c-8.11 4.422-19.23-4.602-43.11-45.861-12.23-21.131-21.467-44.497-21.467-44.497s-1.777-4.361-4.957-6.7c-3.854-2.834-9.241-3.73-9.241-3.73l-57.155.37s-8.58.244-11.725 3.976c-2.808 3.32-.225 10.182-.225 10.182s44.742 104.685 95.407 157.439c46.468 48.38 99.219 45.202 99.219 45.202z" id="path9" fill="#fff" fill-rule="evenodd"/></g></svg>