<svg height="500" id="svg2" width="500" xmlns="http://www.w3.org/2000/svg"><g id="layer1" transform="translate(0 -552.362)"><path d="M0 552.362v500h500v-500z" id="rect2989-1" fill="#537599"/><path d="M500 200.804V500H326.784L146.535 319.75l104.57-105.856-64.448-64.448 95.61-7.427 70 70 94.965-63.983z" id="path2998" transform="translate(0 552.362)" opacity=".3"/><path d="M264.969 136.438c-21.288.099-34.863.125-54 .125-16.007 0-24.996 6.479-25.281 10.343-.262 3.534 7.907 6.39 12.875 9.25 4.794 2.973 9.125 12.408 9.125 18.781v55.594c0 5.283-1.201 8.963-5.47 12.406-2.032 1.64-4.45 2.077-7.062 2.063-2.114-.011-4.99-.407-6.969-2.969-21.083-27.29-21.152-30.66-50.687-85.656-1.432-2.667-2.848-5.497-5.781-7.625-2.934-2.128-7.281-3.531-14.25-3.531-23.74 0-38.39.344-54 .344-14.775 0-13.354 9.06-11.375 13.187 17.714 36.936 35.7 72.203 56.375 108 24.212 41.921 46.348 67.101 83.594 85.188 8.645 4.198 24.233 8.53 42.25 8.53h38.28c4.92 0 13.094-3.88 13.094-9.093v-28.719c0-8.213 8.19-11.2 12.657-13.219 5.263-2.379 10.782 1.372 13.562 4.344 21.401 22.879 18.97 20.39 38.469 40.875 4.406 4.63 7.734 7.063 16.063 7.063 56.24 0 56.287.107 69.718 0 3.688-.03 9.165-5.562 10.375-7.719 1.598-2.847 5.23-13.009-.594-19.594-19.764-22.35-39.91-42.814-59.218-63.125-1.472-1.548-2.585-3.645-2.625-5.781-.044-2.336 1.259-4.604 2.625-6.5 21.655-30.057 39.543-55.51 59-87.125 6.324-10.277 5.506-17.556 4.344-20.063-1.347-2.903-5.492-6.912-10.25-6.937-25.983-.146-37.221-.51-64.938-.469-8.279.012-15.61-.623-20.156 9.344-12.182 26.709-32.056 67.464-49.313 84.406-3.186 3.127-7.442 5.45-11.156 5.469-3.714.018-7.664-2.512-8.219-8.563-.425-29.068-.071-53.867-.219-82.343-.044-8.704-3.715-10.944-6.5-12.875-3.777-2.62-9.746-3.428-14.343-3.406z" id="rect2989-7" transform="translate(0 552.362)" fill="#fff"/></g></svg>