<svg height="512" id="Layer_1" viewBox="0 0 512 512" width="512" xmlns="http://www.w3.org/2000/svg"><path d="M492.531 442.879c0 34.172-27.702 61.873-61.873 61.873H80.916c-34.171 0-61.874-27.701-61.874-61.873V93.135c0-34.171 27.703-61.873 61.874-61.873h349.743c34.171 0 61.873 27.702 61.873 61.873v349.744z" fill="#234A68"/><path d="M492.531 418.135c0 34.172-27.702 61.873-61.873 61.873H80.916c-34.171 0-61.874-27.701-61.874-61.873V68.391c0-34.171 27.703-61.872 61.874-61.872h349.743c34.171 0 61.873 27.701 61.873 61.872v349.744z" fill="#4C75A3"/><path d="M492.531 418.135V230.54c-.697-.695-1.393-1.392-2.088-2.087-16.676-16.659-33.324-33.342-50-50-2.072-2.07-4.074-4.293-6.259-6.244-1.053-.94-1.946-2.059-3-3-1.138-1.017-2.08-2.276-3.273-3.231-1.788-2.257-4.261-3.953-6.118-6.146-1.084-1.278-2.66-2.044-4.23-2.543-3.239-1.032-6.771-1.153-10.145-.998-.928.042-1.848.164-2.775.17-10.458.065-20.916.129-31.373.195l-15.574.098c-.955.005-1.909.011-2.863.018-1.158.008-2.263-.104-3.426.083-2.471.394-4.348 1.692-5.836 3.667-.971 1.287-1.627 2.605-2.203 4.079a287.266 287.266 0 0 1-3.234 7.907c-4.021 9.458-8.432 18.778-13.512 27.716-1.998-2.185-4.191-4.229-6.293-6.316-2.086-2.073-4.107-4.234-6.254-6.246-2.148-2.012-4.067-4.28-6.264-6.24-1.924-2.218-4.225-4.121-6.236-6.261-2.012-2.143-4.16-4.182-6.246-6.253-2.086-2.073-4.107-4.234-6.254-6.246-2.148-2.012-4.067-4.28-6.264-6.24-1.564-1.802-3.397-3.628-5.529-4.743-2.949-1.542-6.488-2.177-9.756-2.742-3.604-.622-7.261-.871-10.911-1.018-6.023-.241-12.064-.25-18.091-.195-5.474.049-10.962.198-16.41.777-4.249.453-8.565 1.136-12.573 2.674-3.804 1.461-7.806 4.178-9.752 7.874-.507.961-.86 2.234.544 2.428-.021.524.264.899.793.97.354.045.232.754.738.938.364.132.423-.063.479.343.031.218.13.42.314.551.199.14.442.166.675.198-.012.301.064.618.325.802.199.14.442.166.675.198-.009.227.028.469.171.655.149.194.387.283.622.315.354.045.163.216.274.5.213.542.877.305.944.781.101.717.931.508 1 1 .076.54.513.683.989.749-.021.524.264.899.793.97.354.045.232.754.738.938.364.132.423-.063.479.343.043.307.225.55.521.657.364.132.423-.063.479.343.031.218.13.42.314.551.199.14.442.166.675.198-.009.227.028.469.171.655.149.194.387.283.622.315.354.045.163.216.274.5a.765.765 0 0 0 .464.438c.538.195.334.048.536.563.213.542.877.305.944.781.076.54.513.683.989.749-.021.524.264.899.793.97.378.049.29.905 1 1 .346.045.229.708.688.905.487.208.452 1.47.524 2.008.204 1.521.354 3.05.459 4.58.109 1.576.184 3.16.173 4.741-.013 1.938.209 3.9.275 5.838.162 4.732.196 9.473.058 14.206-.118 4.035-.357 8.072-.844 12.08-2.136-1.923-3.942-4.222-6.116-6.105-1.944-2.206-4.229-4.112-6.236-6.26-2.007-2.149-4.171-4.17-6.245-6.254-2.074-2.084-4.109-4.238-6.255-6.249-2.144-2.007-4.043-4.313-6.264-6.238-1.944-2.206-4.229-4.112-6.236-6.26-2.007-2.149-4.171-4.17-6.245-6.254-2.074-2.084-4.109-4.238-6.255-6.249-2.144-2.007-4.043-4.313-6.264-6.238-1.944-2.206-4.229-4.112-6.236-6.26-1.87-2.002-3.935-3.402-6.517-4.329-1.029-.37-2.403-.97-3.524-.962l-9.346.06-35.188.229c-3.413.022-6.762.044-10.017 1.311-1.754.683-3.429 1.771-3.971 3.674-.515 1.806-.215 3.809.253 5.592.176.672.394 1.291.667 1.921 3.274 7.539 6.771 14.983 10.354 22.378 7.019 14.486 14.477 28.765 22.469 42.737 9.277 16.218 19.258 32.105 30.59 46.976 5.451 7.154 11.22 14.119 17.557 20.51a4058.972 4058.972 0 0 0 25.072 25.07c16.566 16.762 33.263 33.41 50 50 16.566 16.762 33.263 33.41 50 50a3445.962 3445.962 0 0 0 25 25c8.06 8.152 17.144 15.295 27.071 21.037a121.014 121.014 0 0 0 15.063 7.365h68.016c34.175 0 61.877-27.701 61.877-61.873z" fill="#335C82"/><path clip-rule="evenodd" d="M252.192 338.02h20.022s6.046-.668 9.137-3.994c2.845-3.057 2.754-8.795 2.754-8.795s-.395-26.867 12.077-30.822c12.294-3.898 28.078 25.965 44.808 37.447 12.652 8.689 22.267 6.787 22.267 6.787l44.737-.623s23.397-1.445 12.303-19.846c-.908-1.502-6.466-13.609-33.262-38.482-28.058-26.041-24.297-21.826 9.495-66.863 20.577-27.428 28.807-44.168 26.233-51.342-2.45-6.832-17.585-5.03-17.585-5.03l-50.373.315s-3.732-.51-6.503 1.146c-2.705 1.622-4.443 5.405-4.443 5.405s-7.979 21.224-18.608 39.274c-22.426 38.084-31.396 40.1-35.062 37.73-8.529-5.512-6.396-22.138-6.396-33.955 0-36.91 5.598-52.301-10.905-56.283-5.476-1.322-9.508-2.199-23.512-2.34-17.971-.183-33.184.057-41.795 4.274-5.73 2.813-10.153 9.06-7.456 9.422 3.329.444 10.867 2.031 14.863 7.472 5.162 7.024 4.981 22.793 4.981 22.793s2.968 43.449-6.926 48.843c-6.791 3.703-16.104-3.854-36.103-38.408-10.243-17.697-17.979-37.266-17.979-37.266s-1.488-3.652-4.151-5.611c-3.228-2.373-7.74-3.123-7.74-3.123l-47.866.31s-7.186.204-9.82 3.329c-2.351 2.781-.188 8.527-.188 8.527s37.471 87.673 79.902 131.853c38.916 40.518 83.094 37.856 83.094 37.856z" fill="#FFF" fill-rule="evenodd"/></svg>