<svg height="512" id="Layer_1" viewBox="0 0 512 512" width="512" xmlns="http://www.w3.org/2000/svg"><g clip-rule="evenodd" fill-rule="evenodd"><path fill="#4C6E94" d="M0 0h435.207L512 76.791V512H76.793L0 435.203z"/><path fill="#6E8FB2" d="M435.207 0L512 76.791h-76.793z"/><path fill="#304E73" d="M435.207 76.791L512 153.586V76.791z"/><path fill="#6E8FB2" d="M76.793 512L0 435.203h76.793z"/><path fill="#304E73" d="M153.588 512l-76.795-76.797V512zM338.313 512H512V215.258l-58.348-58.35c2.871 3.629 3.625 9.375-1.211 18.9-17.836 34.615-36.281 51.543-56.691 82.08-.148.15-.148.15-.301.299-5.59 8.465-8.16 16.934-1.355 23.734 20.25 20.254 44.137 40.512 57.285 60.918 9.977 15.273.613 27.367-12.996 27.367H376.855c-8.012 0-14.816-3.477-21.16-8.469-13.152-10.578-22.828-24.188-34.922-36.129-8.313-8.316-14.965-10.129-19.953-5.891-1.512 1.359-2.871 3.172-4.227 5.434-4.242 8.023-4.844 16.781-5.75 32.809-.453 7.707-5.746 11.184-12.852 12.246h-30.078c-35.828 0-66.363-15.422-92.818-41.426L338.313 512zm-126.53-281.172l-73.316-73.314c1.061.908 1.816 2.119 2.271 3.174 15.869 36.281 34.313 68.781 51.547 88.131 3.93 4.383 10.73 6.045 15.266 0 2.117-2.87 3.478-9.676 4.232-17.991zm-3.021-59.859c-7.256-13.455-18.896-10.432-20.561-12.092l22.979 22.975c-.758-5.291-1.512-9.221-2.418-10.883zm100.523 76.64c11.641-11.789 22.375-28.721 31.137-44.443l-53.355-53.361c2.113 2.27 3.324 4.988 3.477 8.617 1.055 27.662-2.121 57.291.906 83.291.902 7.711 8.159 15.723 17.835 5.896z"/><path d="M68.176 152.223l56.234-.148c8.313 0 14.363 4.082 16.328 8.613 15.869 36.281 34.313 68.781 51.547 88.131 3.93 4.383 10.73 6.045 15.266 0 7.711-10.43 5.596-69.836 1.211-77.85-7.863-14.512-20.861-9.824-20.861-12.547.453-8.768 11.943-16.479 53.965-16.631 32.807-.148 48.076 2.875 48.678 16.631 1.055 27.662-2.121 57.291.906 83.291.902 7.711 8.16 15.723 17.836 5.896 26.301-26.906 48.676-79.059 51.398-88.281 1.355-4.836 5.285-7.105 9.977-7.105l69.988-.148c8.316 0 21.766 4.383 11.793 23.734-17.836 34.615-36.281 51.543-56.691 82.08-5.738 8.615-8.461 17.232-1.656 24.033 20.25 20.254 44.137 40.512 57.285 60.918 9.977 15.273.613 27.367-12.996 27.367h-61.527c-8.012 0-14.816-3.477-21.16-8.469-13.152-10.578-22.828-24.188-34.922-36.129-10.887-10.73-18.59-10.578-24.18-.457-4.242 8.023-4.844 16.781-5.75 32.809-.453 7.707-5.746 11.184-12.852 12.246h-30.078c-62.281 0-108.539-46.867-145.271-113.83-16.779-30.684-32.502-57.746-46.408-92.816-1.211-6.2 2.717-11.338 11.94-11.338z" fill="#FFF"/></g></svg>